<svg width="17" height="14" viewBox="0 0 17 14" fill="none" xmlns="http://www.w3.org/2000/svg">
    <path d="M0.616699 6.99023C0.616699 7.27246 0.741211 7.55469 0.94043 7.75391L6.39404 13.1992C6.60986 13.415 6.86719 13.5146 7.12451 13.5146C7.72217 13.5146 8.13721 13.0913 8.13721 12.5352C8.13721 12.228 8.0127 11.979 7.82178 11.7964L5.9707 9.92041L3.7793 7.91992L5.66357 8.02783H15.4502C16.0811 8.02783 16.5044 7.60449 16.5044 6.99023C16.5044 6.37598 16.0811 5.95264 15.4502 5.95264H5.66357L3.7793 6.06055L5.9707 4.06006L7.82178 2.18408C8.0127 1.99316 8.13721 1.74414 8.13721 1.44531C8.13721 0.880859 7.72217 0.45752 7.12451 0.45752C6.86719 0.45752 6.60986 0.56543 6.37744 0.797852L0.94043 6.22656C0.741211 6.42578 0.616699 6.70801 0.616699 6.99023Z" fill="white"/>
</svg>
